<svg width="37" height="19" viewBox="0 0 37 19" fill="none" xmlns="http://www.w3.org/2000/svg">
<path d="M35.0509 18.6765L18.5 2.66641L1.94918 18.6765C1.89347 18.7304 1.83341 18.7776 1.76992 18.818C1.32692 19.1011 0.724514 19.0539 0.334484 18.6765C-0.111496 18.2452 -0.111496 17.5459 0.334484 17.1145L17.6927 0.323607C17.9067 0.116408 18.1972 -1.6438e-06 18.5 -1.61733e-06C18.8028 -1.59085e-06 19.0932 0.116408 19.3074 0.323607L36.6656 17.1146C37.0523 17.4886 37.1036 18.0642 36.8196 18.4917C36.7762 18.5572 36.7248 18.6192 36.6656 18.6765C36.6099 18.7304 36.5498 18.7776 36.4865 18.818C36.3335 18.9157 36.1616 18.9741 35.9861 18.9931C35.9436 18.9977 35.9009 19 35.8582 19C35.566 19 35.2738 18.8922 35.0509 18.6765Z" fill="white"/>
</svg>
