<svg width="35" height="35" viewBox="0 0 35 35" fill="none" xmlns="http://www.w3.org/2000/svg">
<path d="M32.5628 0.817604C33.0166 0.518006 33.6332 0.567923 34.0325 0.967402C34.4892 1.42393 34.4892 2.16411 34.0325 2.62066L19.1533 17.4999L34.0325 32.3793C34.4892 32.8359 34.4892 33.5759 34.0325 34.0325C33.5761 34.4892 32.8359 34.4892 32.3793 34.0325L17.5001 19.1532L2.62066 34.0325C2.16413 34.4889 1.42395 34.4889 0.967416 34.0323C0.510861 33.5759 0.510861 32.8357 0.967416 32.3791L15.8468 17.4999L0.967416 2.62075C0.510861 2.16423 0.510885 1.42405 0.967416 0.967519C1.42395 0.510968 2.16413 0.510968 2.62066 0.967519L17.5001 15.8467L32.3793 0.967402C32.4363 0.91033 32.4981 0.86039 32.5628 0.817604Z" fill="white"/>
</svg>
