<svg width="105" height="65" viewBox="0 0 105 65" fill="none" xmlns="http://www.w3.org/2000/svg">
<path d="M105 30.639C104.429 31.9904 103.376 32.7156 102.02 33.1991C99.7391 34.0149 97.4941 34.9324 95.2574 35.8608C93.893 36.4267 92.6297 36.5009 91.4019 35.5339C91.2352 35.4021 90.8113 35.4048 90.6172 35.5257C88.7934 36.6629 86.9914 37.8386 85.2031 38.9895C86.3816 44.8212 83.6992 48.0379 78.0473 47.6478C76.8934 51.889 75.2773 53.1443 70.6809 53.3009C70.4894 55.3089 69.691 57.0285 67.9547 58.1877C66.2539 59.3249 64.4027 59.4815 62.3957 58.9101C61.8078 61.7531 60.2273 63.6155 57.3617 64.2309C54.4469 64.8571 52.4344 63.1211 50.277 61.451C49.7984 62.0004 49.3473 62.5443 48.8688 63.0579C47.3156 64.728 45.4207 65.3736 43.2059 64.7775C40.9965 64.1814 39.684 62.6843 39.1398 60.4594C39.0687 60.1682 38.7105 59.7644 38.4508 59.7342C35.1941 59.3606 33.6848 58.0531 32.8754 54.8172C32.8508 54.7211 32.807 54.6304 32.7742 54.5425C28.8395 54.0371 27.2754 52.6939 26.6191 49.2575C21.2297 48.373 19.2008 45.1701 21.2406 40.5608C20.8934 40.3053 20.5324 40.0086 20.1441 39.7614C18.1562 38.4924 16.1738 37.215 14.1559 35.9982C13.8633 35.8196 13.3875 35.9185 12.9965 35.9322C12.1051 35.9652 11.1207 36.2921 10.3387 36.0229C7.53594 35.056 4.8043 33.8803 2.03437 32.8063C0.995313 32.4107 0.48125 31.5509 0 30.639C0 30.0923 0 29.5429 0 28.9936C0.604297 27.5542 1.2332 26.123 1.80742 24.6727C4.70586 17.3247 7.59062 9.97125 10.4781 2.61778C11.4516 0.140077 12.9445 -0.527421 15.4027 0.433995C17.8828 1.40365 20.3547 2.39254 22.832 3.3622C24.3687 3.96377 25.1781 5.04055 25.1727 6.73265C25.1727 6.97438 25.4215 7.33147 25.6484 7.4441C27.5953 8.40551 29.6078 8.88073 31.8391 8.91918C36.1266 8.9961 40.4633 8.91918 44.6305 10.2762C44.8766 10.3558 45.2703 10.2102 45.5055 10.0427C45.8883 9.76523 46.2055 9.39165 46.5391 9.04829C48.6254 6.87823 51.1547 6.11459 54.0996 6.61728C55.7484 6.89746 57.4027 7.14743 59.0543 7.41388C60.159 7.59243 60.7797 8.25718 60.684 9.15267C60.5828 10.1031 59.8035 10.636 58.6332 10.4739C56.7738 10.213 54.9227 9.89983 53.066 9.6114C51.502 9.36968 50.1484 9.82017 49.0383 10.9272C44.5922 15.3552 39.8973 19.481 34.6637 22.9641C33.7559 23.5684 33.7641 24.1453 34.609 24.8402C36.3891 26.3098 38.3961 26.4307 40.5098 25.7934C43.2223 24.9748 45.4371 23.3185 47.5453 21.5C49.6508 19.6843 51.3023 19.7283 53.2738 21.6511C57.4574 25.7302 62.4121 27.6805 68.2719 26.9279C69.4586 26.7768 70.35 27.0625 71.2852 27.7684C75.2117 30.7378 79.1875 33.6413 83.1961 36.608C85.3809 35.2016 87.5574 33.8006 89.7969 32.3585C86.8766 24.9364 83.9781 17.5692 81.0496 10.1306C80.0297 10.4987 79.0781 10.7706 78.1867 11.1771C75.0777 12.5918 71.8812 12.8253 68.5754 12.0726C67.8125 11.8996 67.0223 11.8336 66.2512 11.6908C65.2148 11.5013 64.6816 10.8393 64.791 9.92455C64.9004 9.02906 65.5977 8.50989 66.6641 8.64175C68.0859 8.81755 69.5051 9.03455 70.916 9.29551C72.5484 9.59767 74.1125 9.38341 75.6465 8.8203C77.0519 8.30662 78.452 7.77647 79.8273 7.2628C79.8438 4.84278 80.3387 4.1121 82.5863 3.21112C85.0254 2.23322 87.4672 1.26356 89.9172 0.310385C91.9488 -0.480724 93.5539 0.222484 94.3715 2.26893C95.6539 5.47731 96.9172 8.68844 98.1777 11.9051C98.618 13.0313 98.3527 13.8636 97.4668 14.2454C96.5645 14.6327 95.777 14.1905 95.3012 12.9928C94.0023 9.72128 92.7145 6.44697 91.3746 3.05454C88.5609 4.16429 85.7883 5.26031 82.8926 6.40577C86.4145 15.3607 89.9117 24.2469 93.4527 33.2458C96.3156 32.114 99.0938 31.018 101.935 29.8945C100.732 26.8208 99.5613 23.8349 98.391 20.8462C98.2898 20.5908 98.1668 20.3436 98.0902 20.0826C97.8441 19.2283 98.2105 18.4125 98.9543 18.1268C99.7309 17.8274 100.535 18.1323 100.915 18.9509C101.289 19.7557 101.582 20.599 101.918 21.4203C102.944 23.9448 103.972 26.4664 105 28.9881V30.6335V30.639ZM47.868 49.2328C53.3805 49.0872 56.0191 55.1111 52.2266 59.2232C53.3285 59.8798 54.3402 60.6654 55.4859 61.1186C56.8367 61.657 58.3625 60.8549 58.9914 59.5419C59.6203 58.2234 59.2977 56.9378 58.1027 56.0094C57.266 55.3583 56.4047 54.7348 55.6008 54.0453C54.7039 53.2762 54.7668 52.0923 55.6937 51.5292C56.4102 51.0924 57.0527 51.2984 57.6762 51.7764C59.3004 53.029 60.9109 54.3035 62.5762 55.4984C64.1211 56.6027 66.0297 56.2841 67.0195 54.8502C67.9766 53.4657 67.632 51.7736 66.1609 50.6337C64.8895 49.6503 63.6043 48.6834 62.3492 47.6808C61.5453 47.0407 61.4113 46.1315 61.9582 45.4283C62.5187 44.7086 63.3582 44.6372 64.2277 45.2552C64.6734 45.5711 65.0945 45.9255 65.5293 46.2551C66.9977 47.3758 68.4359 48.535 69.9426 49.6008C71.4328 50.6557 73.3359 50.3205 74.3094 48.9361C75.2035 47.667 74.9902 45.6728 73.5027 44.6976C71.9359 43.6703 70.4676 42.4726 69.0457 41.2448C68.6574 40.9096 68.3648 40.157 68.4469 39.6625C68.518 39.2203 69.1113 38.6434 69.5652 38.5418C70.0328 38.4374 70.6945 38.7204 71.1266 39.0362C73.2484 40.5937 75.3047 42.2419 77.4266 43.7994C77.9543 44.1867 78.627 44.4916 79.2695 44.5877C80.6012 44.7855 81.8945 43.9312 82.3676 42.7089C82.8871 41.3684 82.4277 39.885 81.1125 38.9044C77.3008 36.0668 73.4781 33.2403 69.6336 30.4494C69.2645 30.1802 68.6902 30.0291 68.2336 30.0703C61.5809 30.6747 55.9426 28.4854 51.1875 23.8871C50.5531 23.2718 50.1813 23.2415 49.5195 23.8349C47.1844 25.9198 44.6441 27.708 41.6227 28.6722C38.5902 29.6391 35.6891 29.4578 33.0422 27.5185C30.1055 25.3649 30.2395 22.3186 33.1871 20.1925C36.1211 18.0746 38.9211 15.7672 41.773 13.5367C41.9918 13.3664 42.1613 13.1329 42.4348 12.8418C41.7949 12.7154 41.3301 12.5726 40.8598 12.5424C37.6223 12.3363 34.3875 12.0836 31.1473 11.993C29.4109 11.9435 27.7539 11.7403 26.1625 11.037C25.457 10.7266 24.7352 10.4465 23.9531 10.1278C20.9508 17.756 17.9922 25.2825 15.0117 32.8557C17.8062 34.6357 20.5297 36.369 23.2832 38.1215C24.1309 37.1381 24.902 36.1767 25.7441 35.2812C27.2563 33.677 29.132 33.1249 31.2566 33.6825C33.4277 34.2511 34.7648 35.696 35.3008 37.8825C35.3719 38.1737 35.4594 38.4594 35.5359 38.7478C37.1273 38.7066 38.5055 39.0994 39.6867 40.0993C40.8926 41.1184 41.4477 42.4836 41.6965 43.9669C45.3715 44.1894 47.2281 45.7771 47.868 49.23V49.2328ZM11.5473 33.2458C15.0855 24.2524 18.5801 15.3689 22.1074 6.40302C19.2309 5.2658 16.4555 4.17253 13.6199 3.0518C10.0844 12.0342 6.58711 20.9259 3.05977 29.8918C5.91172 31.018 8.68711 32.1168 11.5473 33.2458ZM26.4059 46.0821C26.6437 45.9694 27.2891 45.8486 27.6418 45.464C29.1348 43.8241 30.5977 42.1485 31.9566 40.396C32.7387 39.3878 32.427 37.9897 31.4645 37.1656C30.5211 36.3608 29.0555 36.2976 28.2023 37.2205C26.7176 38.822 25.3094 40.5003 23.9477 42.2089C23.327 42.9918 23.3789 43.9532 23.8738 44.824C24.3496 45.659 25.1043 46.0738 26.4113 46.0821H26.4059ZM38.6969 44.4751C38.5711 43.3791 37.9695 42.4452 37.0398 42.0469C36.05 41.6238 34.9234 41.8436 34.1496 42.7143C32.8781 44.1455 31.6422 45.6068 30.4227 47.0819C29.4109 48.307 29.5066 49.7959 30.6004 50.7435C31.6996 51.6967 33.1844 51.5704 34.2371 50.3782C35.4785 48.969 36.7035 47.5407 37.8793 46.0738C38.2457 45.6178 38.4289 45.0108 38.6941 44.4751H38.6969ZM48.3711 52.2406C47.8133 52.5263 47.1188 52.6884 46.7195 53.1196C45.2867 54.6771 43.9113 56.2923 42.6016 57.9542C41.7867 58.987 42.0301 60.4456 42.998 61.2834C43.977 62.1322 45.4453 62.1762 46.3395 61.2065C47.7969 59.627 49.1832 57.9762 50.523 56.2923C51.1438 55.5122 51.1164 54.5535 50.6352 53.6745C50.173 52.8312 49.4266 52.3999 48.3738 52.2379L48.3711 52.2406ZM44.8984 49.6613C44.7262 48.5433 44.1246 47.6643 43.1539 47.2907C42.0711 46.8759 41.1141 47.1314 40.3648 47.9719C39.0715 49.4278 37.8055 50.9084 36.575 52.4192C35.6016 53.6113 35.7164 55.0644 36.7855 56.0011C37.852 56.9378 39.4023 56.8197 40.4277 55.655C41.6719 54.2459 42.8996 52.823 44.0672 51.3506C44.45 50.8699 44.625 50.2271 44.8957 49.6585L44.8984 49.6613Z" fill="#6EB980"/>
</svg>
