<svg width="42" height="32" viewBox="0 0 42 32" fill="none" xmlns="http://www.w3.org/2000/svg">
<path d="M39.75 0.375H2.25C1.8356 0.375 1.43817 0.53962 1.14515 0.832646C0.85212 1.12567 0.6875 1.5231 0.6875 1.9375V28.5C0.6875 29.3288 1.01674 30.1237 1.60279 30.7097C2.18884 31.2958 2.9837 31.625 3.8125 31.625H38.1875C39.0163 31.625 39.8112 31.2958 40.3972 30.7097C40.9833 30.1237 41.3125 29.3288 41.3125 28.5V1.9375C41.3125 1.5231 41.1479 1.12567 40.8549 0.832646C40.5618 0.53962 40.1644 0.375 39.75 0.375ZM21 17.0059L6.26758 3.5H35.7324L21 17.0059ZM15.2793 16L3.8125 26.5098V5.49023L15.2793 16ZM17.5918 18.1191L19.9355 20.2773C20.2238 20.542 20.6009 20.6888 20.9922 20.6888C21.3835 20.6888 21.7606 20.542 22.0488 20.2773L24.3926 18.1191L35.7207 28.5H6.26758L17.5918 18.1191ZM26.7207 16L38.1875 5.48828V26.5117L26.7207 16Z" fill="#F5F5DC"/>
</svg>
